<svg width="54" height="24" viewBox="0 0 54 24" fill="none" xmlns="http://www.w3.org/2000/svg">
<path d="M13.1477 2.88109H17.8459C19.576 2.85305 21.4748 3.30321 21.4748 5.39912C21.4748 6.29931 20.9401 7.03068 20.1526 7.42452C21.2213 7.73389 21.8829 8.66248 21.8829 9.80177C21.8829 12.1931 20.1244 12.9243 17.9723 12.9243H13.1477V2.88109ZM15.7638 6.83382H17.7897C18.2396 6.83382 18.8584 6.5946 18.8584 5.87731C18.8584 5.14583 18.3379 4.90685 17.7897 4.90685H15.7638V6.83382ZM15.7638 10.8285H17.8598C18.6896 10.8285 19.2663 10.5333 19.2663 9.70334C19.2663 8.8171 18.6475 8.52169 17.8598 8.52169H15.7638V10.8285Z" fill="black"/>
<path d="M26.0315 2.88086H28.6897L32.4455 12.9241H29.7166L29.0978 11.1237H25.5953L24.9622 12.9241H22.2756L26.0315 2.88086ZM26.2001 9.18281H28.4787L27.3674 5.66627H27.3395L26.2001 9.18281Z" fill="black"/>
<path d="M33.1757 2.88086H35.8627L39.3511 9.07005H39.379V2.88086H41.841V12.9241H39.154L35.6656 6.66489H35.6377V12.9241H33.1757V2.88086Z" fill="black"/>
<path d="M43.6265 2.88086H46.2428V6.73516L49.5483 2.88086H52.7977L49.0841 6.83359L53.2619 12.9242H50.0128L47.312 8.70461L46.243 9.82994V12.9244H43.6266V2.88098L43.6265 2.88086Z" fill="black"/>
<path d="M6.5685 16.5685H4.50494V21.9348H2.70357V16.5685H0.640259V15.0186H6.5685V16.5685Z" fill="black"/>
<path d="M7.36282 15.019H10.8887C12.1093 15.019 13.3103 15.5713 13.3103 16.9659C13.3103 17.7118 12.9523 18.419 12.2256 18.7001V18.7192C12.9617 18.8938 13.1746 19.7169 13.2329 20.3757C13.2523 20.6662 13.2816 21.6832 13.5236 21.9354H11.7409C11.586 21.703 11.557 21.0248 11.5376 20.8312C11.489 20.1337 11.3731 19.417 10.5303 19.417H9.16456V21.9354H7.36282V15.019ZM9.16493 18.0217H10.6756C11.2181 18.0217 11.5087 17.7312 11.5087 17.2083C11.5087 16.6951 11.1019 16.4621 10.5983 16.4621H9.16481C9.16493 16.4621 9.16493 18.0217 9.16493 18.0217Z" fill="black"/>
<path d="M16.2355 15.019H18.0662L20.6524 21.9353H18.773L18.3472 20.6952H15.9351L15.4994 21.9353H13.649L16.2355 15.019ZM16.3518 19.3586H17.9211L17.1558 16.9366H17.1364L16.3518 19.3586Z" fill="black"/>
<path d="M21.1565 15.019H23.0065L25.409 19.2811H25.4286V15.019H27.1238V21.9353H25.2737L22.871 17.6249H22.8517V21.9353H21.1565V15.019Z" fill="black"/>
<path d="M29.7584 19.61C29.7973 20.4236 30.3009 20.6849 31.0663 20.6849C31.6086 20.6849 32.1705 20.4914 32.1705 19.978C32.1705 19.3678 31.1824 19.2516 30.1849 18.9704C29.1967 18.6896 28.1602 18.2442 28.1602 16.975C28.1602 15.464 29.6811 14.873 30.9792 14.873C32.3546 14.873 33.7397 15.5412 33.7495 17.1009H31.9478C31.9768 16.4713 31.3859 16.2679 30.8337 16.2679C30.4463 16.2679 29.9619 16.4033 29.9619 16.8588C29.9619 17.3915 30.9596 17.4883 31.967 17.7694C32.965 18.0502 33.9722 18.5151 33.9722 19.7646C33.9722 21.5181 32.4803 22.08 30.9597 22.08C29.3711 22.08 27.9668 21.3823 27.9567 19.6099H29.7584V19.61V19.61Z" fill="black"/>
<path d="M34.8147 15.019H39.9101V16.4623H36.6167V17.8766H39.4645V19.2711H36.6167V21.9353H34.8147V15.019V15.019Z" fill="black"/>
<path d="M40.7336 15.019H46.2453V16.4623H42.5352V17.6732H45.9255V19.068H42.5352V20.3855H46.3422V21.9352H40.7337L40.7336 15.019Z" fill="black"/>
<path d="M47.3692 15.019H50.8951C52.1157 15.019 53.3165 15.5713 53.3165 16.9659C53.3165 17.7118 52.9583 18.419 52.2318 18.7001V18.7192C52.9678 18.8938 53.1811 19.7169 53.2391 20.3757C53.2587 20.6662 53.2875 21.6832 53.5298 21.9354H51.7473C51.5921 21.703 51.5634 21.0248 51.5439 20.8312C51.4955 20.1337 51.3794 19.417 50.5366 19.417H49.171V21.9354H47.3692V15.019ZM49.171 18.0217H50.6822C51.2245 18.0217 51.5149 17.7312 51.5149 17.2083C51.5149 16.6951 51.1084 16.4621 50.6044 16.4621H49.171V18.0217Z" fill="black"/>
<path d="M11.545 2.87988H0.640015V5.06361H11.545V2.87988Z" fill="black"/>
<path d="M11.545 10.7407H0.640015V12.9243H11.545V10.7407Z" fill="black"/>
<path d="M11.545 6.80957H0.640015V8.99329H11.545V6.80957Z" fill="black"/>
</svg>
