<svg width="108" height="24" viewBox="0 0 108 24" fill="none" xmlns="http://www.w3.org/2000/svg">
<path d="M41.8829 15.949V11.8745C41.8829 10.3371 40.8932 9.30211 39.3007 9.28858C38.3769 9.22942 37.4937 9.67265 36.9953 10.4457C36.541 9.69553 35.7091 9.25154 34.827 9.28858C34.0597 9.25192 33.3301 9.61955 32.9082 10.2556V9.44067H31.48V15.949H32.9219V12.3445C32.9219 11.2145 33.5523 10.6169 34.5282 10.6169C35.504 10.6169 35.9564 11.228 35.9564 12.3309V15.949H37.39V12.3445C37.39 11.2145 38.0479 10.6169 38.9964 10.6169C39.9449 10.6169 40.4382 11.228 40.4382 12.3309V15.949H41.8829ZM63.2177 9.4461H60.885V7.47407H59.443V9.4461H58.1108V10.7391H59.443V13.7027C59.443 15.2129 60.0324 16.1121 61.721 16.1121C62.3516 16.1141 62.9701 15.9399 63.5055 15.6096L63.0943 14.398C62.7112 14.6241 62.2764 14.7503 61.8306 14.7647C61.1179 14.7647 60.8822 14.3301 60.8822 13.6783V10.7391H63.215L63.2177 9.4461ZM75.3968 9.28315C74.6875 9.26267 74.0236 9.62853 73.6671 10.2366V9.4461H72.2527V15.949H73.6808V12.3037C73.6808 11.2172 74.1468 10.6304 75.0816 10.6304C75.3874 10.6261 75.6911 10.6815 75.9752 10.7935L76.4139 9.45976C76.0875 9.34408 75.7435 9.28429 75.3968 9.28315ZM56.9841 9.96228C56.1756 9.48618 55.2459 9.25053 54.306 9.28315C52.6449 9.28315 51.5648 10.0737 51.5648 11.3639C51.5648 12.4259 52.3598 13.0779 53.8291 13.2816L54.5007 13.3766C55.2819 13.4853 55.6546 13.689 55.6546 14.0557C55.6546 14.5583 55.1338 14.8462 54.158 14.8462C53.3707 14.871 52.598 14.6317 51.965 14.1671L51.3154 15.2672C52.147 15.8434 53.1436 16.1396 54.158 16.1121C56.0522 16.1121 57.1514 15.2265 57.1514 13.9905C57.1514 12.847 56.2851 12.2493 54.8597 12.0457L54.1881 11.9506C53.5714 11.8691 53.0752 11.7468 53.0752 11.3123C53.0752 10.8368 53.5412 10.5516 54.3252 10.5516C55.0435 10.5623 55.7472 10.7538 56.3702 11.1085L56.9841 9.96228ZM95.2294 9.28315C94.5201 9.26267 93.8564 9.62853 93.4997 10.2366V9.4461H92.0853V15.949H93.5134V12.3037C93.5134 11.2172 93.9794 10.6304 94.9142 10.6304C95.22 10.6261 95.5237 10.6815 95.8078 10.7935L96.2465 9.45976C95.9201 9.34408 95.5761 9.28429 95.2294 9.28315ZM76.8387 12.6976C76.8387 14.6696 78.2257 16.1121 80.3392 16.1121C81.1962 16.1541 82.038 15.8769 82.6993 15.3351L82.0142 14.1915C81.5204 14.5641 80.9186 14.769 80.2981 14.7756C79.1578 14.7756 78.3217 13.9444 78.3217 12.6948C78.3217 11.4453 79.1605 10.6277 80.2981 10.6142C80.9186 10.6208 81.5204 10.8256 82.0142 11.1982L82.6993 10.0546C82.038 9.51285 81.1962 9.23574 80.3392 9.27771C78.2257 9.27771 76.8387 10.7202 76.8387 12.6922V12.6976ZM90.2103 12.6976V9.43801H88.7821V10.2284C88.2881 9.59667 87.5156 9.2413 86.7098 9.27506C84.8705 9.27506 83.4204 10.7039 83.4204 12.6894C83.4204 14.6751 84.8622 16.1039 86.7098 16.1039C87.5156 16.1376 88.2881 15.7823 88.7821 15.1504V15.9381H90.2103V12.6976ZM84.8978 12.6976C84.8978 11.554 85.6517 10.6169 86.888 10.6169C88.0694 10.6169 88.8643 11.516 88.8643 12.6976C88.8643 13.8793 88.0694 14.7784 86.888 14.7784C85.6517 14.7784 84.8978 13.8384 84.8978 12.6976ZM67.6667 9.28315C65.7479 9.28315 64.3991 10.6712 64.3991 12.6976C64.3991 14.7647 65.7999 16.1121 67.7625 16.1121C68.7426 16.1461 69.7009 15.8212 70.4544 15.1993L69.7554 14.1508C69.2103 14.583 68.5347 14.8221 67.8366 14.8299C66.9155 14.8299 66.0795 14.4088 65.8738 13.2382H70.7477C70.7615 13.0616 70.7752 12.885 70.7752 12.6948C70.7752 10.6685 69.4977 9.28049 67.6584 9.28049L67.6667 9.28315ZM67.6392 10.549C68.5603 10.549 69.1497 11.1194 69.3004 12.1272H65.8986C66.0494 11.1873 66.625 10.549 67.6419 10.549H67.6392ZM103.453 12.6976V6.83301H102.025V10.2338C101.531 9.60211 100.758 9.24674 99.9526 9.28049C98.1132 9.28049 96.6632 10.7093 96.6632 12.6948C96.6632 14.6805 98.1051 16.1093 99.9526 16.1093C100.758 16.1431 101.531 15.7877 102.025 15.1559V15.9436H103.453V12.6976ZM105.122 15.3488C105.179 15.3485 105.235 15.3596 105.287 15.3814C105.337 15.4025 105.383 15.433 105.421 15.471C105.46 15.5083 105.49 15.5526 105.512 15.6014C105.556 15.7036 105.556 15.8196 105.512 15.922C105.49 15.9706 105.46 16.0149 105.421 16.0523C105.383 16.0902 105.337 16.1206 105.287 16.1419C105.235 16.1639 105.179 16.1749 105.122 16.1745C104.952 16.1767 104.796 16.0771 104.728 15.922C104.684 15.8196 104.684 15.7038 104.728 15.6014C104.771 15.5016 104.851 15.4226 104.953 15.3814C105.008 15.3585 105.068 15.3474 105.128 15.3488H105.122ZM105.122 16.0821C105.166 16.0829 105.209 16.0745 105.249 16.0577C105.286 16.0415 105.321 16.0185 105.35 15.9898C105.477 15.8637 105.477 15.6596 105.35 15.5335C105.321 15.5046 105.286 15.4816 105.249 15.4656C105.209 15.4489 105.166 15.4405 105.122 15.4411C105.078 15.4405 105.034 15.4489 104.994 15.4656C104.828 15.5356 104.751 15.7256 104.822 15.8897C104.838 15.927 104.861 15.961 104.889 15.9898C104.919 16.0189 104.955 16.0419 104.994 16.0577C105.036 16.0753 105.082 16.0835 105.128 16.0821H105.122ZM105.147 15.5661C105.188 15.5632 105.229 15.5747 105.262 15.5987C105.29 15.6203 105.305 15.6536 105.303 15.6883C105.304 15.718 105.292 15.7467 105.27 15.7671C105.245 15.7892 105.214 15.8026 105.18 15.8051L105.306 15.949H105.207L105.09 15.8051H105.051V15.949H104.969V15.5687L105.147 15.5661ZM105.051 15.6366V15.7399H105.147C105.164 15.7448 105.182 15.7448 105.199 15.7399C105.212 15.7314 105.219 15.717 105.218 15.7019C105.219 15.6867 105.212 15.6723 105.199 15.6638C105.182 15.6589 105.164 15.6589 105.147 15.6638L105.051 15.6366ZM98.1461 12.6976C98.1461 11.554 98.9 10.6169 100.136 10.6169C101.318 10.6169 102.113 11.516 102.113 12.6976C102.113 13.8793 101.318 14.7784 100.136 14.7784C98.9 14.7784 98.1461 13.8384 98.1461 12.6976ZM49.9282 12.6976V9.43801H48.5001V10.2284C48.006 9.60211 47.2376 9.25015 46.436 9.28315C44.5967 9.28315 43.1466 10.7119 43.1466 12.6976C43.1466 14.6833 44.5884 16.1121 46.436 16.1121C47.2418 16.1457 48.0143 15.7904 48.5083 15.1586V15.9464H49.9365L49.9282 12.6976ZM44.6159 12.6976C44.6159 11.554 45.3697 10.6169 46.6059 10.6169C47.7874 10.6169 48.5824 11.516 48.5824 12.6976C48.5824 13.8793 47.7874 14.7784 46.6059 14.7784C45.3697 14.7784 44.6159 13.8412 44.6159 12.6976Z" fill="black"/>
<path d="M13.9083 6.6848C14.0037 6.6023 14.1008 6.5223 14.2004 6.4448C14.2992 6.5223 14.3971 6.6023 14.4925 6.6848C16.117 8.09314 17.1464 10.1656 17.1464 12.4798C17.1464 14.7931 16.117 16.8656 14.4925 18.274C14.3971 18.3565 14.2992 18.4365 14.2004 18.5148C14.1008 18.4365 14.0037 18.3565 13.9083 18.274C12.283 16.8656 11.2544 14.7931 11.2544 12.4798C11.2544 10.1656 12.283 8.09314 13.9083 6.6848Z" fill="black"/>
<path d="M14.6976 6.08314C15.9195 5.2723 17.3883 4.7998 18.9668 4.7998C23.2268 4.7998 26.68 8.23814 26.68 12.4798C26.68 16.7206 23.2268 20.1598 18.9668 20.1598C17.3883 20.1598 15.9195 19.6865 14.6976 18.8756C14.7595 18.8248 14.8231 18.774 14.8842 18.7223C16.7012 17.1481 17.7432 14.8723 17.7432 12.4798C17.7432 10.0865 16.7012 7.81064 14.8834 6.23647C14.8231 6.18397 14.7595 6.13397 14.6976 6.08314Z" fill="black"/>
<path d="M13.7033 18.8756C13.6405 18.8248 13.5769 18.774 13.5166 18.7223C11.6996 17.1481 10.6577 14.8731 10.6577 12.4798C10.6577 10.0865 11.6996 7.81064 13.5166 6.23647C13.5769 6.18397 13.6405 6.13397 13.7033 6.08314C12.4805 5.2723 11.0125 4.7998 9.43322 4.7998C5.17321 4.7998 1.72 8.23814 1.72 12.4798C1.72 16.7206 5.17321 20.1598 9.43322 20.1598C11.0125 20.1598 12.4805 19.6865 13.7033 18.8756Z" fill="black"/>
<path d="M26.439 16.9406V17.2381H26.3837V17.0131L26.2992 17.2073H26.2423L26.1578 17.014V17.2381H26.1025V16.9406H26.1803L26.2707 17.1456L26.3603 16.9406H26.439Z" fill="black"/>
<path d="M25.9435 16.9915V17.2381H25.8891V16.9915H25.7887V16.9406H26.0439V16.9915H25.9435Z" fill="black"/>
</svg>
