<svg width="86" height="24" viewBox="0 0 86 24" fill="none" xmlns="http://www.w3.org/2000/svg">
<path d="M3.05457 19.6625V4.909C3.05457 3.57373 4.10184 2.605 5.51566 2.605C6.92947 2.605 7.7542 3.15482 8.38256 4.37227L12.0873 11.7425H12.1397V2.87991H16.2895V17.4894C16.2895 19.021 15.1375 19.9374 14.0902 19.9374C13.0167 19.9374 12.2313 19.4399 11.1317 17.3061L7.26984 9.83118H7.21747V19.6494H3.05457V19.6625ZM23.8298 15.0545L22.272 12.5672L25.6102 10.3417C24.9949 9.949 24.5106 9.89664 24.0393 9.89664C22.3637 9.89664 21.4473 11.6377 21.4473 13.1301C21.4473 14.6879 22.5469 16.3112 24.1964 16.3112C25.728 16.3112 27.2204 14.9366 27.8357 13.4835L30.7549 15.0152C29.5898 17.869 26.9847 19.9374 23.9084 19.9374C20.5047 19.9374 17.52 16.9526 17.52 13.3395C17.52 9.71336 20.4917 6.74173 23.9084 6.74173C26.7622 6.74173 28.6342 8.29955 29.9695 10.7606L23.8298 15.0545ZM34.6822 13.3395C34.6822 11.8865 35.7295 10.669 37.1564 10.669C38.5833 10.669 39.6306 11.8865 39.6306 13.3395C39.6306 14.7926 38.5833 16.0101 37.1564 16.0101C35.7295 16.0101 34.6822 14.7926 34.6822 13.3395ZM30.7549 13.3395C30.7549 16.9657 33.7397 19.9374 37.1564 19.9374C40.5731 19.9374 43.5578 16.9526 43.5578 13.3395C43.5578 9.71336 40.5731 6.74173 37.1564 6.74173C33.7397 6.74173 30.7549 9.71336 30.7549 13.3395ZM44.3957 16.0625H48.2575C48.7287 16.0625 48.9644 15.8268 48.9644 15.4995C48.9644 14.3214 44.5266 14.7665 44.5266 10.6559C44.5266 8.31264 46.5295 7.13445 48.4407 7.13445H52.3418V10.4465H49.2C48.7287 10.4465 48.3753 10.6952 48.3753 11.0355C48.3753 12.0305 53.0618 12.2792 53.0618 15.6174C53.0618 18.1439 51.504 19.5185 48.8727 19.5185H44.3826V16.0625H44.3957ZM58.272 14.2952C58.272 15.3686 58.8087 16.0363 59.6858 16.0363C60.5629 16.0363 61.0997 15.3686 61.0997 14.2952V7.14755H65.0662V14.2952C65.0662 17.5286 63.1942 19.9505 59.6858 19.9505C56.1906 19.9505 54.3055 17.5417 54.3055 14.2952V7.14755H58.272V14.2952ZM69.7789 9.21591H69.8313C70.4335 7.46173 71.5855 7.14755 73.3266 7.14755V10.8654C70.5513 10.9701 70.3026 11.5723 70.3026 13.7192V19.5315H66.2967V7.14755H69.7789V9.21591V9.21591ZM74.1644 19.5315V6.24427C74.1644 3.67845 76.1542 1.78027 79.296 1.78027H81.6V5.485H79.6626C78.6153 5.485 78.3535 6.07409 78.3535 7.10827H80.7884V10.813H78.3535V19.5315H74.1644V19.5315Z" fill="black"/>
</svg>
