<svg width="79" height="24" viewBox="0 0 79 24" fill="none" xmlns="http://www.w3.org/2000/svg">
<path d="M72.9404 6.74656C72.0077 6.09059 70.5963 5.75977 68.7457 5.75977H63.8992L62.0976 15.7984H55.7489L56.1558 13.5211H59.9809L60.4355 10.9631L56.613 10.9698L57.0224 8.70227H60.9612L61.4853 5.76H53.484L51.774 15.2834H48.8401L50.5625 5.76H46.3794L44.6696 15.2834H41.8087L43.5329 5.76H39.3542L37.5479 15.799H31.1542L31.5569 13.5215H35.3991L35.8516 10.978L32.0153 10.9744L32.4227 8.70227H36.4054L36.9269 5.76H11.9992L10.5803 13.7156L7.75336 5.75977H3.41495L1.07999 18.7423H5.223L6.63613 10.5683L9.37952 18.7423H24.2295L26.0347 8.70181H28.3584L26.5522 18.7423H65.6272L66.759 12.4038L68.5935 18.7423H72.7389L70.8397 13.5632L71.2732 13.467C72.2286 13.257 72.9764 12.8047 73.4953 12.1271C74.0151 11.4432 74.2791 10.5649 74.2791 9.51007C74.2793 8.28135 73.8421 7.3779 72.9404 6.74656ZM20.6222 15.7982H14.2784L14.6884 13.5209H18.6675L19.1197 10.9556H15.1789L15.5599 8.70158H21.8926L20.6222 15.7982ZM69.523 11.4255C69.1067 11.7231 68.5026 11.8702 67.676 11.8702H66.8563L67.4848 8.38575H68.0877C68.7738 8.38575 69.275 8.49934 69.6204 8.72952C69.8901 8.9098 70.21 9.26702 70.21 9.94467C70.21 10.761 69.838 11.2002 69.523 11.4255Z" fill="black"/>
<path d="M77.5301 17.7298C77.4563 17.6245 77.3793 17.5371 77.2986 17.4689C77.2612 17.4377 77.2061 17.4074 77.1351 17.3761C77.3243 17.3391 77.4619 17.2682 77.5481 17.1647C77.6343 17.0602 77.6745 16.9361 77.6665 16.791C77.6621 16.6785 77.6288 16.5786 77.5691 16.4886C77.509 16.3985 77.4327 16.3376 77.3381 16.3061C77.2436 16.2739 77.1085 16.2625 76.9323 16.2716L76.0493 16.3172L76.1511 18.3595L76.4151 18.3457L76.3714 17.4381L76.6752 17.4223C76.743 17.4185 76.7917 17.4192 76.8225 17.4241C76.8625 17.4329 76.9051 17.4482 76.9447 17.4727C76.9851 17.4967 77.0325 17.5392 77.0851 17.6018C77.1381 17.664 77.2061 17.7546 77.2891 17.8736L77.5732 18.2845L77.9014 18.2675L77.5301 17.7298ZM76.9244 17.1765L76.3599 17.2065L76.3249 16.5299L76.9531 16.4972C77.1004 16.4899 77.2103 16.5144 77.2816 16.5729C77.3525 16.6325 77.3906 16.7095 77.3955 16.8069C77.3998 16.8729 77.3843 16.934 77.3525 16.9926C77.3203 17.0512 77.2704 17.0948 77.2044 17.1233C77.1383 17.1523 77.044 17.1709 76.9244 17.1765Z" fill="black"/>
<path d="M76.7298 15.3843C76.2349 15.4115 75.7775 15.6336 75.4453 16.012C75.1125 16.3901 74.9427 16.8796 74.9681 17.3889C75.0218 18.4395 75.897 19.2498 76.921 19.1972C77.9436 19.1427 78.735 18.2438 78.6821 17.1938C78.6302 16.1429 77.7551 15.3308 76.7298 15.3843ZM76.904 18.8732C76.0538 18.9172 75.3282 18.2438 75.2839 17.3714C75.2635 16.9487 75.4033 16.5438 75.6795 16.2305C75.9556 15.9166 76.3352 15.7311 76.7475 15.7099C77.5963 15.6646 78.3226 16.3376 78.3663 17.2097C78.3677 17.2366 78.3695 17.2652 78.3695 17.2911C78.3695 18.1277 77.7269 18.8292 76.904 18.8732Z" fill="black"/>
</svg>
