<svg width="51" height="24" viewBox="0 0 51 24" fill="none" xmlns="http://www.w3.org/2000/svg">
<path d="M50.1201 19.7775C48.8696 19.7775 47.6191 19.7775 46.35 19.7775C46.2121 19.1091 46.0641 18.4552 45.9473 17.7955C45.8988 17.5218 45.812 17.4157 45.509 17.4196C43.9974 17.4392 42.4852 17.4344 40.9733 17.4223C40.7445 17.4205 40.6536 17.4968 40.5839 17.707C40.3757 18.3355 40.1478 18.9575 39.9148 19.5772C39.8832 19.6614 39.7783 19.7768 39.7065 19.7774C38.3438 19.7893 36.9809 19.7862 35.5789 19.7862C35.8344 19.1656 36.0764 18.5732 36.3219 17.9823C38.0791 13.7547 39.8368 9.52738 41.5945 5.30006C41.9752 4.38447 42.5458 4.00107 43.5275 4.00102C44.6216 4.00094 45.7155 4.00099 46.8375 4.00099C46.947 4.5164 47.057 5.02426 47.1624 5.53314C48.0271 9.71092 48.8896 13.8891 49.7564 18.0664C49.8674 18.6015 49.9984 19.1325 50.1201 19.6653C50.1201 19.7027 50.1201 19.7402 50.1201 19.7775ZM45.1858 14.1712C44.784 12.2287 44.3876 10.3121 43.9912 8.39558C43.9751 8.39237 43.9588 8.38916 43.9427 8.38596C43.252 10.3073 42.5613 12.2287 41.8629 14.1712C42.9908 14.1712 44.0708 14.1712 45.1858 14.1712Z" fill="black"/>
<path d="M33.6976 3.72021C34.1951 3.81337 34.6964 3.88997 35.189 4.00457C35.6386 4.10914 36.0787 4.25489 36.5566 4.39212C36.3158 5.52775 36.0806 6.63614 35.8506 7.72064C35.2203 7.53421 34.6179 7.31957 33.9986 7.18172C33.1514 6.99319 32.2836 6.92134 31.4362 7.15947C31.0917 7.25626 30.743 7.44213 30.4719 7.67645C30.0067 8.07835 30.0004 8.65693 30.4448 9.07889C30.7511 9.36988 31.1142 9.60871 31.4771 9.82879C32.302 10.329 33.1682 10.764 33.9698 11.2984C34.9139 11.9277 35.6026 12.7928 35.7471 13.9627C36.0028 16.0317 35.2442 17.6614 33.5207 18.8144C32.4369 19.5394 31.2106 19.8632 29.9326 19.9832C28.1483 20.1506 26.3993 19.949 24.6944 19.3842C24.5802 19.3464 24.4689 19.2991 24.3574 19.2532C24.3242 19.2394 24.2953 19.2151 24.2444 19.1831C24.4852 18.0457 24.7263 16.9066 24.9743 15.7357C25.2649 15.8637 25.5377 15.9919 25.8165 16.1052C27.1485 16.6465 28.5241 16.894 29.9496 16.6246C30.3205 16.5546 30.6988 16.3894 31.0132 16.1769C31.6954 15.7157 31.7609 14.8491 31.1396 14.3074C30.7314 13.9513 30.2406 13.6884 29.7754 13.4026C29.0488 12.9563 28.2768 12.5758 27.5893 12.0763C26.7079 11.436 26.0695 10.5822 25.9487 9.44742C25.7674 7.74834 26.3926 6.36872 27.686 5.29674C28.8112 4.36401 30.1472 3.95008 31.5706 3.77624C31.6497 3.76657 31.7267 3.73929 31.8046 3.72021C32.4356 3.72021 33.0666 3.72021 33.6976 3.72021Z" fill="black"/>
<path d="M19.0357 4.0135C18.8239 4.52744 18.6234 5.01746 18.4201 5.50633C16.4798 10.1742 14.5371 14.8409 12.6046 19.5121C12.5126 19.7346 12.3999 19.7931 12.1762 19.7912C10.9515 19.781 9.72662 19.7769 8.50214 19.794C8.24253 19.7976 8.15798 19.7058 8.09822 19.4709C7.05996 15.3909 6.00436 11.3153 4.97797 7.23226C4.78958 6.48318 4.4127 5.97157 3.7056 5.65761C2.57227 5.15432 1.39579 4.80077 0.19577 4.5134C0.142712 4.50069 0.0898596 4.48678 0.0400009 4.47422C0.0459881 4.00069 0.0459884 4.00067 0.492549 4.00066C2.63575 4.00066 4.77905 4.00017 6.92226 4.00087C7.93884 4.0012 8.67257 4.5967 8.86478 5.61137C9.40889 8.48386 9.94134 11.3585 10.4787 14.2323C10.5023 14.358 10.5291 14.483 10.5647 14.6599C10.6203 14.5547 10.6591 14.4954 10.6844 14.4308C12.0156 11.0356 13.3471 7.64045 14.6714 4.24246C14.7438 4.05697 14.8329 3.99405 15.0315 3.99563C16.2746 4.00557 17.518 4.00045 18.7613 4.00114C18.8416 4.00118 18.9219 4.00818 19.0357 4.0135Z" fill="black"/>
<path d="M17.4136 19.7869C18.5334 14.5102 19.6451 9.27056 20.7597 4.01807C22.1153 4.01807 23.4551 4.01807 24.8205 4.01807C24.6515 4.81806 24.4863 5.60276 24.3199 6.38723C23.3999 10.7258 22.4764 15.0634 21.5666 19.404C21.5033 19.7056 21.3974 19.8015 21.0869 19.7953C19.9741 19.7737 18.8605 19.7869 17.7472 19.7869C17.6474 19.7869 17.5475 19.7869 17.4136 19.7869Z" fill="black"/>
</svg>
