<svg width="36" height="24" viewBox="0 0 36 24" fill="none" xmlns="http://www.w3.org/2000/svg">
<path d="M14.341 12.0001C14.3388 9.08589 15.688 6.33246 18.0002 4.53317C13.8402 1.29166 7.81752 2.00757 4.54814 6.13218C1.27883 10.2568 2.00089 16.2283 6.1609 19.4697C9.63508 22.1768 14.526 22.1768 18.0002 19.4697C15.6873 17.6699 14.338 14.9153 14.341 12.0001Z" fill="black"/>
<path d="M33.5022 12.0014C33.5021 17.2473 29.2128 21.4999 23.9218 21.4998C21.7743 21.4998 19.6891 20.7843 18.001 19.4683C22.161 16.2269 22.8831 10.2555 19.6137 6.13084C19.1423 5.53606 18.6008 4.99925 18.001 4.53183C22.1604 1.28955 28.1832 2.00433 31.4533 6.12835C32.7811 7.80287 33.5027 9.87138 33.5022 12.0014Z" fill="black"/>
<path d="M32.5799 17.8827V17.5766H32.705V17.5159H32.3936V17.5793H32.5187V17.8853L32.5799 17.8827ZM33.1946 17.8827V17.5134H33.1121L33.0004 17.7771L32.8886 17.5134H32.7901V17.8827H32.846V17.6057L32.9499 17.8458H33.0216L33.1254 17.6057V17.8853L33.1946 17.8827Z" fill="black"/>
</svg>
