<svg width="58" height="24" viewBox="0 0 58 24" fill="none" xmlns="http://www.w3.org/2000/svg">
<path d="M56.6178 20.7082C55.229 20.7082 53.8403 20.7082 52.4309 20.7082C52.2777 19.9658 52.1133 19.2396 51.9837 18.507C51.9298 18.203 51.8334 18.0852 51.4969 18.0895C49.8181 18.1113 48.1387 18.106 46.4597 18.0925C46.2055 18.0905 46.1045 18.1752 46.0271 18.4087C45.7959 19.1067 45.5429 19.7975 45.284 20.4857C45.2489 20.5792 45.1325 20.7074 45.0528 20.7081C43.5394 20.7213 42.0258 20.7178 40.4688 20.7178C40.7525 20.0286 41.0212 19.3706 41.2939 18.7144C43.2454 14.0193 45.1975 9.32462 47.1495 4.62986C47.5723 3.61303 48.206 3.18723 49.2962 3.18718C50.5113 3.1871 51.7262 3.18715 52.9722 3.18715C53.0939 3.75954 53.2161 4.32357 53.3331 4.88871C54.2933 9.52845 55.2513 14.1687 56.2139 18.8079C56.3372 19.4021 56.4827 19.9918 56.6178 20.5835C56.6178 20.625 56.6178 20.6667 56.6178 20.7082ZM51.138 14.482C50.6917 12.3246 50.2514 10.1961 49.8112 8.06767C49.7933 8.06411 49.7752 8.06054 49.7573 8.05698C48.9903 10.1908 48.2232 12.3246 47.4475 14.482C48.7002 14.482 49.8996 14.482 51.138 14.482Z" fill="black"/>
<path d="M38.3794 2.87549C38.9318 2.97895 39.4886 3.06401 40.0357 3.19128C40.535 3.30742 41.0238 3.46929 41.5545 3.62169C41.287 4.88289 41.0259 6.11384 40.7704 7.31825C40.0704 7.11122 39.4014 6.87284 38.7137 6.71975C37.7728 6.51037 36.809 6.43057 35.8679 6.69504C35.4854 6.80253 35.0981 7.00896 34.7969 7.26919C34.2804 7.71553 34.2734 8.35808 34.7669 8.82669C35.107 9.14987 35.5104 9.4151 35.9133 9.65952C36.8294 10.215 37.7914 10.6981 38.6817 11.2916C39.7302 11.9905 40.495 12.9513 40.6555 14.2505C40.9394 16.5483 40.0969 18.3582 38.1829 19.6387C36.9793 20.4439 35.6173 20.8035 34.1981 20.9367C32.2165 21.1226 30.2741 20.8988 28.3807 20.2715C28.2538 20.2296 28.1302 20.177 28.0064 20.126C27.9695 20.1107 27.9374 20.0837 27.8809 20.0481C28.1483 18.785 28.4161 17.52 28.6915 16.2196C29.0142 16.3617 29.3172 16.5041 29.6268 16.6299C31.1061 17.2311 32.6338 17.506 34.217 17.2068C34.6289 17.129 35.0489 16.9456 35.3981 16.7096C36.1558 16.1974 36.2285 15.2349 35.5386 14.6334C35.0852 14.2379 34.5401 13.9459 34.0235 13.6284C33.2165 13.1328 32.3592 12.7103 31.5957 12.1556C30.6168 11.4444 29.9078 10.4963 29.7736 9.23598C29.5723 7.34902 30.2667 5.81685 31.703 4.62634C32.9527 3.59047 34.4364 3.13077 36.0172 2.93771C36.105 2.92697 36.1905 2.89668 36.2771 2.87549C36.9778 2.87549 37.6786 2.87549 38.3794 2.87549Z" fill="black"/>
<path d="M22.0962 3.20139C21.8609 3.77216 21.6382 4.31637 21.4125 4.85929C19.2577 10.0433 17.1001 15.226 14.9539 20.4137C14.8518 20.6609 14.7266 20.7258 14.4782 20.7237C13.118 20.7124 11.7577 20.7078 10.3978 20.7268C10.1095 20.7308 10.0156 20.6288 9.94925 20.368C8.79618 15.8368 7.62386 11.3105 6.48398 6.77606C6.27476 5.94415 5.85621 5.37598 5.07092 5.02729C3.81227 4.46835 2.5057 4.07571 1.17299 3.75656C1.11407 3.74246 1.05537 3.72701 1 3.71306C1.00665 3.18716 1.00665 3.18714 1.50259 3.18713C3.88277 3.18713 6.26307 3.18659 8.64325 3.18737C9.77224 3.18774 10.5871 3.84908 10.8006 4.97595C11.4048 8.16606 11.9962 11.3586 12.593 14.5501C12.6191 14.6897 12.6489 14.8286 12.6885 15.025C12.7502 14.9081 12.7933 14.8424 12.8214 14.7706C14.2998 10.9999 15.7785 7.22939 17.2493 3.45567C17.3296 3.24967 17.4286 3.17979 17.6491 3.18155C19.0298 3.19259 20.4106 3.1869 21.7914 3.18767C21.8805 3.18771 21.9697 3.19549 22.0962 3.20139Z" fill="black"/>
<path d="M20.2949 20.7185C21.5384 14.8583 22.7731 9.03933 24.0109 3.20605C25.5165 3.20605 27.0044 3.20605 28.5208 3.20605C28.3331 4.0945 28.1496 4.96597 27.9648 5.83719C26.9431 10.6554 25.9175 15.4727 24.9071 20.2933C24.8368 20.6282 24.7192 20.7347 24.3743 20.7279C23.1385 20.7039 21.9017 20.7185 20.6653 20.7185C20.5545 20.7185 20.4436 20.7185 20.2949 20.7185Z" fill="black"/>
</svg>
